<?xml version="1.0" encoding="UTF-8"?>
<svg id="_レイヤー_4" data-name="レイヤー 4" xmlns="http://www.w3.org/2000/svg" viewBox="0 0 600 600">
  <defs>
    <style>
      .cls-1 {
        fill: #2ea7e0;
      }

      .cls-1, .cls-2, .cls-3, .cls-4, .cls-5, .cls-6 {
        stroke: #231815;
        stroke-miterlimit: 10;
        stroke-width: 18px;
      }

      .cls-2 {
        fill: #fff100;
      }

      .cls-7 {
        fill: #fff;
      }

      .cls-3 {
        fill: #c9a063;
      }

      .cls-4 {
        fill: #00913a;
      }

      .cls-5 {
        fill: #c30d23;
      }

      .cls-6 {
        fill: #f0d4af;
      }
    </style>
  </defs>
  <rect class="cls-6" x="408.14" y="301.99" width="71.95" height="150.06" rx="35.97" ry="35.97" transform="translate(-137.71 347.62) rotate(-37.44)"/>
  <rect class="cls-6" x="121.9" y="298.39" width="71.95" height="150.06" rx="35.48" ry="35.48" transform="translate(226.35 -26.18) rotate(32.64)"/>
  <path class="cls-6" d="M399.27,577.83l-56.39,4.7c-4.24.35-7.94-3.12-8.26-7.76l-3.95-56.74c-.32-4.64,2.85-8.69,7.09-9.04l56.39-4.7c4.24-.35,7.94,3.12,8.26,7.76l3.95,56.74c.32,4.64-2.85,8.69-7.09,9.04Z"/>
  <path class="cls-6" d="M259.17,584.99l-56.49-7.44c-4.13-.54-7.07-4.65-6.57-9.16l6.25-56.87c.5-4.52,4.24-7.74,8.37-7.2l56.49,7.44c4.13.54,7.07,4.65,6.57,9.16l-6.25,56.87c-.5,4.52-4.24,7.74-8.37,7.2Z"/>
  <rect class="cls-6" x="134.75" y="25.51" width="324.78" height="313.48" rx="21.24" ry="21.24"/>
  <rect class="cls-4" x="201.55" y="338.99" width="201.45" height="180.89"/>
  <rect class="cls-1" x="207" y="142.6" width="64.4" height="113.94"/>
  <rect class="cls-1" x="324.91" y="142.6" width="64.4" height="113.94"/>
  <path class="cls-6" d="M523.13,151.62h-59.55c-2.16,0-3.91,1.75-3.91,3.91v71.77c0,2.16,1.75,3.91,3.91,3.91h32.8c2.16,0,3.91-1.75,3.91-3.91v-26.19c0-2.16,1.75-3.91,3.91-3.91h18.93c2.16,0,3.91-1.75,3.91-3.91v-37.76c0-2.16-1.75-3.91-3.91-3.91Z"/>
  <path class="cls-6" d="M70.71,151.62h59.55c2.16,0,3.91,1.75,3.91,3.91v37.7s0,3.96,0,3.96v30.11c0,2.16-1.75,3.91-3.91,3.91h-32.8c-2.16,0-3.91-1.75-3.91-3.91v-26.19c0-2.16-1.75-3.91-3.91-3.91h-18.93c-2.16,0-3.91-1.75-3.91-3.91v-37.76c0-2.16,1.75-3.91,3.91-3.91Z"/>
  <path class="cls-2" d="M156.48,25.23h279.95c12.37,0,22.41,10.04,22.41,22.41v55.32H135.54v-56.79c0-11.56,9.38-20.94,20.94-20.94Z"/>
  <rect class="cls-5" x="285.28" y="52.43" width="31.71" height="63.41" rx="15.85" ry="15.85"/>
  <rect class="cls-3" x="204.03" y="419.04" width="194.2" height="38.64"/>
  <rect class="cls-2" x="276.36" y="415.08" width="55.49" height="44.59"/>
  <rect class="cls-7" x="338.89" y="156.01" width="21.22" height="39.79"/>
  <rect class="cls-7" x="220" y="155.32" width="21.22" height="39.79"/>
</svg>