<svg xmlns="http://www.w3.org/2000/svg" viewBox="0 0 120 160" width="120" height="160" aria-label="男子学生 Taro">
  <!--
    AI塾 QRelDo オリジナルキャラクター
    スタイル: シンプル線画 + フラットカラー（黄・青・オレンジ）
    キャラクター名: 男子学生（Taro）
  -->

  <!-- ===== 定数 ===== -->
  <!-- 線: stroke="#1a2744" stroke-width="2" stroke-linecap="round" stroke-linejoin="round" -->
  <!-- 肌色: #ffd4a8 -->
  <!-- 髪色: #3b5ea6（青みがかった黒） -->
  <!-- 制服上: #3b5ea6（濃い青） -->
  <!-- 制服下: #e8edf7（薄い青白） -->
  <!-- アクセント: #f5c842（黄色） -->

  <!-- ===== 影（ソフトドロップシャドウ） ===== -->
  <ellipse cx="60" cy="156" rx="28" ry="5" fill="#d4d8e8" opacity="0.5"/>

  <!-- ===== 首 ===== -->
  <rect x="51" y="72" width="18" height="18" rx="4"
    fill="#ffd4a8" stroke="#1a2744" stroke-width="2"
    stroke-linecap="round" stroke-linejoin="round"/>

  <!-- ===== 頭 ===== -->
  <!-- 顔ベース -->
  <ellipse cx="60" cy="52" rx="24" ry="26"
    fill="#ffd4a8" stroke="#1a2744" stroke-width="2"
    stroke-linecap="round" stroke-linejoin="round"/>

  <!-- 髪（後ろ） -->
  <ellipse cx="60" cy="38" rx="24" ry="18"
    fill="#3b5ea6" stroke="#1a2744" stroke-width="2"
    stroke-linecap="round" stroke-linejoin="round"/>

  <!-- 髪（前・おでこ） -->
  <path d="M38 46 Q44 26 60 27 Q76 26 82 46"
    fill="#3b5ea6" stroke="#1a2744" stroke-width="2"
    stroke-linecap="round" stroke-linejoin="round"/>

  <!-- 前髪のはね -->
  <path d="M38 44 Q35 35 42 32" fill="none"
    stroke="#1a2744" stroke-width="2"
    stroke-linecap="round"/>
  <path d="M45 29 Q48 24 55 27" fill="none"
    stroke="#1a2744" stroke-width="2"
    stroke-linecap="round"/>

  <!-- 耳 -->
  <ellipse cx="36" cy="54" rx="4.5" ry="5.5"
    fill="#ffd4a8" stroke="#1a2744" stroke-width="1.8"
    stroke-linecap="round"/>
  <path d="M37.5 51 Q39 54 37.5 57" fill="none"
    stroke="#1a2744" stroke-width="1.2" stroke-linecap="round"/>
  <ellipse cx="84" cy="54" rx="4.5" ry="5.5"
    fill="#ffd4a8" stroke="#1a2744" stroke-width="1.8"
    stroke-linecap="round"/>
  <path d="M82.5 51 Q81 54 82.5 57" fill="none"
    stroke="#1a2744" stroke-width="1.2" stroke-linecap="round"/>

  <!-- 眉毛 -->
  <path d="M48 43 Q53 40 58 42" fill="none"
    stroke="#1a2744" stroke-width="2.2"
    stroke-linecap="round"/>
  <path d="M62 42 Q67 40 72 43" fill="none"
    stroke="#1a2744" stroke-width="2.2"
    stroke-linecap="round"/>

  <!-- 目（左） -->
  <ellipse cx="52" cy="51" rx="5" ry="5.5"
    fill="#fff" stroke="#1a2744" stroke-width="1.8"/>
  <circle cx="53" cy="52" r="3" fill="#1a2744"/>
  <circle cx="54.2" cy="50.5" r="1.2" fill="#fff"/>
  <!-- まつげ上（左） -->
  <path d="M47 48 Q48 46 49.5 47.5" fill="none"
    stroke="#1a2744" stroke-width="1.5" stroke-linecap="round"/>

  <!-- 目（右） -->
  <ellipse cx="68" cy="51" rx="5" ry="5.5"
    fill="#fff" stroke="#1a2744" stroke-width="1.8"/>
  <circle cx="69" cy="52" r="3" fill="#1a2744"/>
  <circle cx="70.2" cy="50.5" r="1.2" fill="#fff"/>
  <!-- まつげ上（右） -->
  <path d="M73 48 Q72 46 70.5 47.5" fill="none"
    stroke="#1a2744" stroke-width="1.5" stroke-linecap="round"/>

  <!-- 鼻 -->
  <path d="M59 59 Q60 62 61 59" fill="none"
    stroke="#1a2744" stroke-width="1.5" stroke-linecap="round"/>

  <!-- 口（笑顔） -->
  <path d="M52 67 Q60 74 68 67" fill="none"
    stroke="#1a2744" stroke-width="2" stroke-linecap="round"/>
  <!-- 上唇の山 -->
  <path d="M54 67 Q57 64 60 66 Q63 64 66 67" fill="none"
    stroke="#1a2744" stroke-width="1.2" stroke-linecap="round"/>

  <!-- 頬の赤み -->
  <ellipse cx="44" cy="63" rx="5" ry="3.5" fill="#f5a9a9" opacity="0.55"/>
  <ellipse cx="76" cy="63" rx="5" ry="3.5" fill="#f5a9a9" opacity="0.55"/>

  <!-- ===== 胴体（制服） ===== -->
  <!-- 体ベース（上着） -->
  <path d="M26 90 Q22 130 24 150 L96 150 Q98 130 94 90 Q84 80 60 80 Q36 80 26 90Z"
    fill="#3b5ea6" stroke="#1a2744" stroke-width="2"
    stroke-linecap="round" stroke-linejoin="round"/>

  <!-- シャツの白い部分（えり元） -->
  <path d="M52 80 L56 92 L60 88 L64 92 L68 80"
    fill="#fff" stroke="#1a2744" stroke-width="1.8"
    stroke-linecap="round" stroke-linejoin="round"/>

  <!-- ボタン -->
  <circle cx="60" cy="96" r="2" fill="#fff"/>
  <circle cx="60" cy="104" r="2" fill="#fff"/>
  <circle cx="60" cy="112" r="2" fill="#fff"/>

  <!-- ===== 腕（左） ===== -->
  <path d="M26 90 Q14 100 16 120 Q18 130 24 132 Q30 134 34 122 L36 107 L30 95Z"
    fill="#3b5ea6" stroke="#1a2744" stroke-width="2"
    stroke-linecap="round" stroke-linejoin="round"/>
  <!-- 袖口 -->
  <path d="M16 120 Q17 132 24 132 Q30 133 34 122"
    fill="#fff" stroke="#1a2744" stroke-width="1.8"
    stroke-linecap="round"/>
  <!-- 手（左） -->
  <ellipse cx="21" cy="135" rx="8" ry="6"
    fill="#ffd4a8" stroke="#1a2744" stroke-width="1.8"
    stroke-linecap="round"/>
  <path d="M14 132 Q13 128 16 127" fill="none"
    stroke="#1a2744" stroke-width="1.5" stroke-linecap="round"/>
  <path d="M29 132 Q30 128 27 127" fill="none"
    stroke="#1a2744" stroke-width="1.5" stroke-linecap="round"/>

  <!-- ===== 腕（右） ===== -->
  <path d="M94 90 Q106 100 104 120 Q102 130 96 132 Q90 134 86 122 L84 107 L90 95Z"
    fill="#3b5ea6" stroke="#1a2744" stroke-width="2"
    stroke-linecap="round" stroke-linejoin="round"/>
  <!-- 袖口（右） -->
  <path d="M104 120 Q103 132 96 132 Q90 133 86 122"
    fill="#fff" stroke="#1a2744" stroke-width="1.8"
    stroke-linecap="round"/>
  <!-- 手（右）：本を持っている -->
  <ellipse cx="99" cy="135" rx="8" ry="6"
    fill="#ffd4a8" stroke="#1a2744" stroke-width="1.8"
    stroke-linecap="round"/>
  <!-- 本 -->
  <rect x="90" y="128" width="20" height="14" rx="2"
    fill="#f5c842" stroke="#1a2744" stroke-width="1.8"/>
  <line x1="100" y1="128" x2="100" y2="142"
    stroke="#1a2744" stroke-width="1.2"/>
  <!-- 本の線 -->
  <line x1="102" y1="131" x2="108" y2="131"
    stroke="#1a2744" stroke-width="1"/>
  <line x1="102" y1="134" x2="108" y2="134"
    stroke="#1a2744" stroke-width="1"/>
  <line x1="102" y1="137" x2="108" y2="137"
    stroke="#1a2744" stroke-width="1"/>

  <!-- ===== ズボン ===== -->
  <!-- ウエスト帯 -->
  <rect x="30" y="147" width="60" height="6" rx="3"
    fill="#e8edf7" stroke="#1a2744" stroke-width="1.8"/>
  <!-- 脚（左） -->
  <path d="M30 152 Q27 160 28 160 L50 160 Q52 152 46 152Z"
    fill="#e8edf7" stroke="#1a2744" stroke-width="1.8"
    stroke-linecap="round" stroke-linejoin="round"/>
  <!-- 脚（右） -->
  <path d="M90 152 Q93 160 92 160 L70 160 Q68 152 74 152Z"
    fill="#e8edf7" stroke="#1a2744" stroke-width="1.8"
    stroke-linecap="round" stroke-linejoin="round"/>
  <!-- ズボン中央線 -->
  <line x1="60" y1="152" x2="60" y2="160"
    stroke="#1a2744" stroke-width="1.2" stroke-linecap="round"/>
</svg>
