<svg xmlns="http://www.w3.org/2000/svg" viewBox="0 0 120 160" width="120" height="160" aria-label="女子学生 Emma">
  <!-- 影 -->
  <ellipse cx="60" cy="156" rx="28" ry="5" fill="#d4d8e8" opacity="0.5"/>

  <!-- 首 -->
  <rect x="52" y="72" width="16" height="18" rx="4"
    fill="#ffd4a8" stroke="#1a2744" stroke-width="2"
    stroke-linecap="round" stroke-linejoin="round"/>

  <!-- 頭（顔ベース） -->
  <ellipse cx="60" cy="50" rx="23" ry="25"
    fill="#ffd4a8" stroke="#1a2744" stroke-width="2"
    stroke-linecap="round" stroke-linejoin="round"/>

  <!-- 髪（後ろ・長め） -->
  <path d="M37 44 Q34 70 36 90 Q40 98 44 96 Q40 66 40 48Z"
    fill="#e07b3a" stroke="#1a2744" stroke-width="1.8"
    stroke-linecap="round" stroke-linejoin="round"/>
  <path d="M83 44 Q86 70 84 90 Q80 98 76 96 Q80 66 80 48Z"
    fill="#e07b3a" stroke="#1a2744" stroke-width="1.8"
    stroke-linecap="round" stroke-linejoin="round"/>

  <!-- 髪（頭頂部） -->
  <path d="M37 46 Q38 24 60 22 Q82 24 83 46"
    fill="#e07b3a" stroke="#1a2744" stroke-width="2"
    stroke-linecap="round" stroke-linejoin="round"/>

  <!-- 前髪 -->
  <path d="M38 44 Q42 30 60 29 Q78 30 82 44"
    fill="#e07b3a" stroke="#1a2744" stroke-width="2"
    stroke-linecap="round" stroke-linejoin="round"/>

  <!-- 前髪の分け目ライン -->
  <path d="M60 29 Q58 35 58 42" fill="none"
    stroke="#c46428" stroke-width="1.2" stroke-linecap="round"/>

  <!-- ポニーテール（お団子） -->
  <path d="M82 32 Q92 28 94 36 Q96 44 88 46 Q84 44 83 38Z"
    fill="#e07b3a" stroke="#1a2744" stroke-width="1.8"
    stroke-linecap="round" stroke-linejoin="round"/>
  <!-- ゴム -->
  <ellipse cx="83" cy="38" rx="4" ry="3"
    fill="#f5c842" stroke="#1a2744" stroke-width="1.5"/>

  <!-- 耳 -->
  <ellipse cx="37" cy="52" rx="4" ry="5"
    fill="#ffd4a8" stroke="#1a2744" stroke-width="1.8"/>
  <path d="M38.5 49.5 Q40 52 38.5 55" fill="none"
    stroke="#1a2744" stroke-width="1.2" stroke-linecap="round"/>
  <ellipse cx="83" cy="52" rx="4" ry="5"
    fill="#ffd4a8" stroke="#1a2744" stroke-width="1.8"/>
  <path d="M81.5 49.5 Q80 52 81.5 55" fill="none"
    stroke="#1a2744" stroke-width="1.2" stroke-linecap="round"/>

  <!-- 眉毛 -->
  <path d="M48 41 Q53 38.5 57 40" fill="none"
    stroke="#1a2744" stroke-width="2" stroke-linecap="round"/>
  <path d="M63 40 Q67 38.5 72 41" fill="none"
    stroke="#1a2744" stroke-width="2" stroke-linecap="round"/>

  <!-- 目（丸め・大きめ） -->
  <ellipse cx="52" cy="49" rx="5.5" ry="6"
    fill="#fff" stroke="#1a2744" stroke-width="1.8"/>
  <circle cx="53" cy="50" r="3.2" fill="#1a2744"/>
  <circle cx="54.5" cy="48.5" r="1.3" fill="#fff"/>
  <path d="M46.5 46 Q48 44 50 45.5" fill="none"
    stroke="#1a2744" stroke-width="1.5" stroke-linecap="round"/>

  <ellipse cx="68" cy="49" rx="5.5" ry="6"
    fill="#fff" stroke="#1a2744" stroke-width="1.8"/>
  <circle cx="69" cy="50" r="3.2" fill="#1a2744"/>
  <circle cx="70.5" cy="48.5" r="1.3" fill="#fff"/>
  <path d="M73.5 46 Q72 44 70 45.5" fill="none"
    stroke="#1a2744" stroke-width="1.5" stroke-linecap="round"/>

  <!-- まつげ（下・女子らしく） -->
  <path d="M48 53 Q49 55 50 53.5" fill="none"
    stroke="#1a2744" stroke-width="1.2" stroke-linecap="round"/>
  <path d="M72 53 Q71 55 70 53.5" fill="none"
    stroke="#1a2744" stroke-width="1.2" stroke-linecap="round"/>

  <!-- 鼻 -->
  <path d="M59 57 Q60 60 61 57" fill="none"
    stroke="#1a2744" stroke-width="1.5" stroke-linecap="round"/>

  <!-- 口（やや大きい笑顔） -->
  <path d="M51 65 Q60 72 69 65" fill="none"
    stroke="#1a2744" stroke-width="2" stroke-linecap="round"/>
  <path d="M53 65 Q56 62 60 64 Q64 62 67 65" fill="none"
    stroke="#1a2744" stroke-width="1.2" stroke-linecap="round"/>

  <!-- 頬 -->
  <ellipse cx="44" cy="60" rx="5" ry="3.5" fill="#f5a9a9" opacity="0.55"/>
  <ellipse cx="76" cy="60" rx="5" ry="3.5" fill="#f5a9a9" opacity="0.55"/>

  <!-- ===== 胴体（セーラー服風ブレザー） ===== -->
  <!-- 上着 -->
  <path d="M28 88 Q24 128 26 150 L94 150 Q96 128 92 88 Q80 78 60 78 Q40 78 28 88Z"
    fill="#3b5ea6" stroke="#1a2744" stroke-width="2"
    stroke-linecap="round" stroke-linejoin="round"/>

  <!-- リボン -->
  <path d="M54 82 L60 90 L66 82" fill="none"
    stroke="#1a2744" stroke-width="1.5" stroke-linecap="round" stroke-linejoin="round"/>
  <path d="M54 82 Q55 86 60 84 Q65 86 66 82 Q61 79 60 82 Q59 79 54 82Z"
    fill="#f5c842" stroke="#1a2744" stroke-width="1.5"
    stroke-linecap="round" stroke-linejoin="round"/>

  <!-- スカート（台形） -->
  <path d="M26 130 Q22 150 24 152 L96 152 Q98 150 94 130Z"
    fill="#e8edf7" stroke="#1a2744" stroke-width="1.8"
    stroke-linecap="round" stroke-linejoin="round"/>
  <!-- スカートのプリーツ -->
  <line x1="38" y1="130" x2="35" y2="152" stroke="#1a2744" stroke-width="1" stroke-linecap="round"/>
  <line x1="48" y1="130" x2="46" y2="152" stroke="#1a2744" stroke-width="1" stroke-linecap="round"/>
  <line x1="60" y1="130" x2="60" y2="152" stroke="#1a2744" stroke-width="1" stroke-linecap="round"/>
  <line x1="72" y1="130" x2="74" y2="152" stroke="#1a2744" stroke-width="1" stroke-linecap="round"/>
  <line x1="82" y1="130" x2="85" y2="152" stroke="#1a2744" stroke-width="1" stroke-linecap="round"/>

  <!-- 腕（左） -->
  <path d="M28 88 Q16 98 18 118 Q20 128 26 130 Q32 132 36 120 L38 105 L32 93Z"
    fill="#3b5ea6" stroke="#1a2744" stroke-width="2"
    stroke-linecap="round" stroke-linejoin="round"/>
  <path d="M18 118 Q19 130 26 130 Q32 131 36 120"
    fill="#fff" stroke="#1a2744" stroke-width="1.8" stroke-linecap="round"/>
  <!-- 手（左） -->
  <ellipse cx="20" cy="133" rx="7.5" ry="5.5"
    fill="#ffd4a8" stroke="#1a2744" stroke-width="1.8" stroke-linecap="round"/>

  <!-- 腕（右）＋ノートを持つ -->
  <path d="M92 88 Q104 98 102 118 Q100 128 94 130 Q88 132 84 120 L82 105 L88 93Z"
    fill="#3b5ea6" stroke="#1a2744" stroke-width="2"
    stroke-linecap="round" stroke-linejoin="round"/>
  <path d="M102 118 Q101 130 94 130 Q88 131 84 120"
    fill="#fff" stroke="#1a2744" stroke-width="1.8" stroke-linecap="round"/>
  <!-- 手（右） -->
  <ellipse cx="100" cy="133" rx="7.5" ry="5.5"
    fill="#ffd4a8" stroke="#1a2744" stroke-width="1.8" stroke-linecap="round"/>
  <!-- ノート -->
  <rect x="88" y="122" width="18" height="22" rx="2"
    fill="#fff" stroke="#1a2744" stroke-width="1.8"/>
  <rect x="88" y="122" width="4" height="22" rx="1"
    fill="#f5c842" stroke="#1a2744" stroke-width="1.5"/>
  <line x1="94" y1="127" x2="104" y2="127" stroke="#94a3b8" stroke-width="1"/>
  <line x1="94" y1="131" x2="104" y2="131" stroke="#94a3b8" stroke-width="1"/>
  <line x1="94" y1="135" x2="104" y2="135" stroke="#94a3b8" stroke-width="1"/>
  <line x1="94" y1="139" x2="104" y2="139" stroke="#94a3b8" stroke-width="1"/>
</svg>
